<?xml version="1.0" encoding="UTF-8" standalone="no"?>
<svg width="100px" height="107px" viewBox="0 0 100 107" version="1.1" xmlns="http://www.w3.org/2000/svg" xmlns:xlink="http://www.w3.org/1999/xlink" xmlns:sketch="http://www.bohemiancoding.com/sketch/ns">
    <!-- Generator: Sketch 3.5.2 (25235) - http://www.bohemiancoding.com/sketch -->
    <title>angular</title>
    <desc>Created with Sketch.</desc>
    <defs></defs>
    <g id="Page-1" stroke="none" stroke-width="1" fill="none" fill-rule="evenodd" sketch:type="MSPage">
        <g id="Landing-Page" sketch:type="MSArtboardGroup" transform="translate(-634.000000, -1293.000000)">
            <g id="Section-2" sketch:type="MSLayerGroup" transform="translate(165.000000, 1217.000000)">
                <g id="tools" transform="translate(0.000000, 73.000000)" sketch:type="MSShapeGroup">
                    <g id="angular" transform="translate(469.000000, 3.000000)">
                        <path d="M49,0.5 L0,18 L7.2378503,83.6117345 L49,107 L91.7748503,83.2979887 L100,18 L49,0.5 Z M94.5,22 L49,6 L49,101 L87.3241976,80.1647627 L94.5,22 Z M5.50000001,22 L11.7187425,80.4446554 L49.000001,101 L49.000001,6 L5.50000001,22 Z" id="Shape" fill="#67747C"></path>
                        <path d="M61.7409581,56.7468757 L49.2278443,62.5956045 L36.0391796,62.5956045 L29.8394731,78.0954915 L18.3079341,78.308887 L49.2278443,9.55383051 L61.7409581,56.7468757 L61.7409581,56.7468757 Z M60.5313772,53.8022599 L49.3107006,31.5988531 L40.107,53.4202034 L49.2272395,53.4202034 L60.5313772,53.8022599 L60.5313772,53.8022599 Z" id="Shape" fill="#8D979D"></path>
                        <path d="M49.2272395,9.55383051 L49.3100958,31.5988531 L59.7536168,53.4371299 L49.2508263,53.4371299 L49.2272395,62.5817006 L63.7500719,62.5956045 L70.5376347,78.3113051 L81.5714311,78.5156328 L49.2272395,9.55383051 Z" id="Shape" fill="#67747C"></path>
                    </g>
                </g>
            </g>
        </g>
    </g>
</svg>