<?xml version="1.0" encoding="UTF-8" standalone="no"?>
<svg width="197px" height="109px" viewBox="0 0 197 109" version="1.1" xmlns="http://www.w3.org/2000/svg" xmlns:xlink="http://www.w3.org/1999/xlink" xmlns:sketch="http://www.bohemiancoding.com/sketch/ns">
    <!-- Generator: Sketch 3.5.2 (25235) - http://www.bohemiancoding.com/sketch -->
    <title>docker</title>
    <desc>Created with Sketch.</desc>
    <defs></defs>
    <g id="Page-1" stroke="none" stroke-width="1" fill="none" fill-rule="evenodd" sketch:type="MSPage">
        <g id="Landing-Page" sketch:type="MSArtboardGroup" transform="translate(-1052.000000, -1292.000000)" fill="#67747C">
            <g id="Section-2" sketch:type="MSLayerGroup" transform="translate(165.000000, 1217.000000)">
                <g id="tools" transform="translate(0.000000, 73.000000)" sketch:type="MSShapeGroup">
                    <g id="docker" transform="translate(887.000000, 2.000000)">
                        <path d="M131.999997,33.9756508 L131.999997,51 L139.999997,51 C144.117173,51 148.635055,50.1249446 152.534168,48.8146531 C154.450065,48.1703616 156.600545,47.2737601 158.490423,46.1461476 C156.001285,42.9230517 154.730491,38.8533247 154.356314,34.8417601 C153.848327,29.3855572 154.958052,22.2836052 158.681642,18.0131771 L160.535176,15.8869742 L162.743889,17.6478192 C168.304906,22.0788081 172.981694,28.2702325 173.806038,35.3283579 C180.501973,33.3750037 188.363388,33.8370258 194.265541,37.2153579 L196.686948,38.6010148 L195.412436,41.068 C190.420943,50.7295055 179.985725,53.7224096 169.783438,53.1928044 C154.516971,90.9029041 121.280138,108.756292 80.9806289,108.756292 C60.1605786,108.756292 41.0585996,101.037491 30.1810608,82.7179852 L28.4179727,79.2212804 C24.7410524,71.1571919 23.5198176,62.3230664 24.3482914,53.4963137 L24.5,51 L39.0000004,51 L39.0000004,33.9756508 L57.0000004,33.9756508 L57.0000004,17 L92.9999965,17 L92.9999965,-1.11022302e-16 L113.999997,-1.11022302e-16 L113.999997,33.9756508 L131.999997,33.9756508 Z M170.862602,39.5889557 C172.045015,30.4763063 165.1686,23.3182399 160.903983,19.9198376 C155.989721,25.5546236 155.226088,40.3225387 162.935933,46.5401771 C158.633321,50.3305609 149.566365,53.7662362 140.282998,53.7662362 L27.2756205,53.7662362 C26.3728071,63.3773616 28.0743585,72.2278708 31.9598428,79.8037232 L33.2455052,82.1355424 C34.0595241,83.5056347 34.9487086,84.8278044 35.9097547,86.1008229 L35.9101677,86.1008229 C40.5559811,86.3965498 44.8395954,86.4989483 48.7585325,86.412524 L48.7601845,86.412524 C56.4617694,86.2437712 62.7455325,85.3422546 67.5082243,83.7059262 C68.2173417,83.4613985 68.9900608,83.8345387 69.2353816,84.536583 C69.4802893,85.2390369 69.1052872,86.0062066 68.3969958,86.2495055 C67.76387,86.467 67.1034864,86.6709779 66.4216268,86.8638967 C66.4208008,86.8647159 66.4199748,86.8647159 66.4191488,86.8647159 C62.6691279,87.9263838 58.6481803,88.6415351 53.4596876,88.9589705 C53.7673711,88.9638856 53.1387883,89.004845 53.1371363,89.004845 C52.9607862,89.0159041 52.7385933,89.0408893 52.5614172,89.05031 C50.5195556,89.1637675 48.3153857,89.1879336 46.0620692,89.1879336 C43.5977107,89.1879336 41.170522,89.1416494 38.4571258,89.004845 L38.3877421,89.05031 C47.8036813,99.5461587 62.5262306,105.84121 80.9806289,105.84121 C120.037841,105.84121 153.166468,88.6702066 167.836153,50.1208487 C178.244113,51.180059 188.246509,48.5480074 192.796507,39.7392768 C185.548807,35.5913173 176.229096,36.9138967 170.862602,39.5889557 Z M114,37 L129,37 L129,51.0465317 L114,51.0465317 L114,37 Z M96,37 L111,37 L111,51.0465315 L96,51.0465315 L96,37 Z M96,20 L111,20 L111,34.0000002 L96,34.0000002 L96,20 Z M96,3 L111,3 L111,17.0000002 L96,17.0000002 L96,3 Z M42,37 L57,37 L57,51.0465315 C51.7119577,51.0465315 42,51.0465315 42,51.0465315 L42,37 Z M60,20 L75,20 L75,34 L60,34.0000002 L60,20 Z M60,37 L75,37 L75,51.0465315 L60,51.0465315 L60,37 Z M78,37 L92.9999998,37 L93,51.0465317 L78,51.0465317 L78,37 Z M78,20 L92.9999998,20 L92.9999998,34.0000002 L78,34.0000002 L78,20 Z" id="Fill-2"></path>
                        <path d="M49,38 L50,38 L50,50 L49,50 L49,38 Z" id="Path"></path>
                        <path d="M52,38 L53,38 L53,50 L52,50 L52,38 Z" id="Path"></path>
                        <path d="M55,38 L56,38 L56,50 L55,50 L55,38 Z" id="Path"></path>
                        <path d="M45.9999999,38 L46.9999999,38 L46.9999999,50 L45.9999999,50 L45.9999999,38 Z" id="Path"></path>
                        <path d="M43,38 L44,38 L44,50 L43,50 L43,38 Z" id="Path"></path>
                        <path d="M67,38 L68,38 L68,50 L67,50 L67,38 Z" id="Path"></path>
                        <path d="M70,38 L71,38 L71,50 L70,50 L70,38 Z" id="Path"></path>
                        <path d="M73,38 L74,38 L74,50 L73,50 L73,38 Z" id="Path"></path>
                        <path d="M63.9999999,38 L64.9999999,38 L64.9999999,50 L63.9999999,50 L63.9999999,38 Z" id="Path"></path>
                        <path d="M61,38 L62,38 L62,50 L61,50 L61,38 Z" id="Path"></path>
                        <path d="M85,38 L86,38 L86,50 L85,50 L85,38 Z" id="Path"></path>
                        <path d="M88,38 L89,38 L89,50 L88,50 L88,38 Z" id="Path"></path>
                        <path d="M91,38 L92,38 L92,50 L91,50 L91,38 Z" id="Path"></path>
                        <path d="M81.9999999,38 L82.9999999,38 L82.9999999,50 L81.9999999,50 L81.9999999,38 Z" id="Path"></path>
                        <path d="M79,38 L80,38 L80,50 L79,50 L79,38 Z" id="Path"></path>
                        <path d="M85,21 L86,21 L86,33 L85,33 L85,21 Z" id="Path"></path>
                        <path d="M88,21 L89,21 L89,33 L88,33 L88,21 Z" id="Path"></path>
                        <path d="M91,21 L92,21 L92,33 L91,33 L91,21 Z" id="Path"></path>
                        <path d="M81.9999999,21 L82.9999999,21 L82.9999999,33 L81.9999999,33 L81.9999999,21 Z" id="Path"></path>
                        <path d="M79,21 L80,21 L80,33 L79,33 L79,21 Z" id="Path"></path>
                        <path d="M103,38 L104,38 L104,50 L103,50 L103,38 Z" id="Path"></path>
                        <path d="M106,38 L107,38 L107,50 L106,50 L106,38 Z" id="Path"></path>
                        <path d="M109,38 L110,38 L110,50 L109,50 L109,38 Z" id="Path"></path>
                        <path d="M99.9999999,38 L101,38 L101,50 L99.9999999,50 L99.9999999,38 Z" id="Path"></path>
                        <path d="M97,38 L98,38 L98,50 L97,50 L97,38 Z" id="Path"></path>
                        <path d="M103,21 L104,21 L104,33 L103,33 L103,21 Z" id="Path"></path>
                        <path d="M106,21 L107,21 L107,33 L106,33 L106,21 Z" id="Path"></path>
                        <path d="M109,21 L110,21 L110,33 L109,33 L109,21 Z" id="Path"></path>
                        <path d="M99.9999999,21 L101,21 L101,33 L99.9999999,33 L99.9999999,21 Z" id="Path"></path>
                        <path d="M97,21 L98,21 L98,33 L97,33 L97,21 Z" id="Path"></path>
                        <path d="M103,3.99999999 L104,3.99999999 L104,16 L103,16 L103,3.99999999 Z" id="Path"></path>
                        <path d="M106,3.99999999 L107,3.99999999 L107,16 L106,16 L106,3.99999999 Z" id="Path"></path>
                        <path d="M109,3.99999999 L110,3.99999999 L110,16 L109,16 L109,3.99999999 Z" id="Path"></path>
                        <path d="M99.9999999,3.99999999 L101,3.99999999 L101,16 L99.9999999,16 L99.9999999,3.99999999 Z" id="Path"></path>
                        <path d="M97,3.99999999 L98,3.99999999 L98,16 L97,16 L97,3.99999999 Z" id="Path"></path>
                        <path d="M121,38 L122,38 L122,50 L121,50 L121,38 Z" id="Path"></path>
                        <path d="M124,38 L125,38 L125,50 L124,50 L124,38 Z" id="Path"></path>
                        <path d="M127,38 L128,38 L128,50 L127,50 L127,38 Z" id="Path"></path>
                        <path d="M118,38 L119,38 L119,50 L118,50 L118,38 Z" id="Path"></path>
                        <path d="M115,38 L116,38 L116,50 L115,50 L115,38 Z" id="Path"></path>
                        <path d="M74.5725535,76.8059041 C74.9582935,76.8059041 75.3262746,76.8779926 75.6657589,77.0086531 C75.2977778,77.2195941 75.04874,77.6148524 75.04874,78.0670443 C75.04874,78.7420554 75.6005052,79.2884539 76.2811258,79.2884539 C76.7474004,79.2884539 77.1525514,79.0316384 77.3619413,78.6523542 C77.5097945,79.0058339 77.5919811,79.3941292 77.5919811,79.8012657 C77.5919811,81.454797 76.240239,82.7953985 74.5725535,82.7953985 C72.9052809,82.7953985 71.5527128,81.454797 71.5527128,79.8012657 C71.5527128,78.1469151 72.9052809,76.8059041 74.5725535,76.8059041" id="Fill-17"></path>
                        <path d="M0,66.9551661 L196.123205,66.9551661 C191.852807,65.8808007 182.611979,64.4296089 184.135941,58.8791993 C176.371168,67.7903284 157.645017,65.1308339 152.919082,60.7367085 C147.656249,68.3068266 117.018826,65.429428 114.881975,59.5320923 C108.284333,67.2111624 87.8401111,67.2111624 81.2420566,59.5320923 C79.1043795,65.429428 48.467369,68.3068266 43.2041237,60.7367085 C38.4781887,65.1308339 19.7536897,67.7903284 11.9880901,58.8791993 C13.5120524,64.4296089 4.27122432,65.8808007 0,66.9551661" id="Fill-18"></path>
                        <path d="M67,21 L68,21 L68,33 L67,33 L67,21 Z" id="Path"></path>
                        <path d="M70,21 L71,21 L71,33 L70,33 L70,21 Z" id="Path"></path>
                        <path d="M73,21 L74,21 L74,33 L73,33 L73,21 Z" id="Path"></path>
                        <path d="M63.9999999,21 L64.9999999,21 L64.9999999,33 L63.9999999,33 L63.9999999,21 Z" id="Path"></path>
                        <path d="M61,21 L62,21 L62,33 L61,33 L61,21 Z" id="Path"></path>
                    </g>
                </g>
            </g>
        </g>
    </g>
</svg>