<?xml version="1.0" encoding="UTF-8" standalone="no"?>
<svg width="92px" height="92px" viewBox="0 0 92 92" version="1.1" xmlns="http://www.w3.org/2000/svg" xmlns:xlink="http://www.w3.org/1999/xlink" xmlns:sketch="http://www.bohemiancoding.com/sketch/ns">
    <!-- Generator: Sketch 3.5.2 (25235) - http://www.bohemiancoding.com/sketch -->
    <title>git</title>
    <desc>Created with Sketch.</desc>
    <defs></defs>
    <g id="Page-1" stroke="none" stroke-width="1" fill="none" fill-rule="evenodd" sketch:type="MSPage">
        <g id="Landing-Page" sketch:type="MSArtboardGroup" transform="translate(-1339.000000, -1300.000000)" fill="#67747C">
            <g id="Section-2" sketch:type="MSLayerGroup" transform="translate(165.000000, 1217.000000)">
                <g id="tools" transform="translate(0.000000, 73.000000)" sketch:type="MSShapeGroup">
                    <g id="git" transform="translate(1174.000000, 10.000000)">
                        <path d="M90.1545,41.85125 L50.0355,1.73325 C47.7255,-0.57775 43.9785,-0.57775 41.6665,1.73325 L33.3365,10.06525 L43.9035,20.63325 C46.3595,19.80325 49.1755,20.36025 51.1335,22.31725 C53.1015,24.28725 53.6535,27.12725 52.8025,29.59225 L62.9885,39.77725 C65.4535,38.92725 68.2955,39.47725 70.2635,41.44825 C73.0135,44.19725 73.0135,48.65425 70.2635,51.40525 C67.5115,54.15725 63.0555,54.15725 60.3025,51.40525 C58.2345,49.33525 57.7225,46.29525 58.7715,43.74725 L49.2715,34.24825 L49.2715,59.24525 C49.9415,59.57725 50.5745,60.01925 51.1335,60.57625 C53.8835,63.32625 53.8835,67.78225 51.1335,70.53625 C48.3835,73.28525 43.9245,73.28525 41.1755,70.53625 C38.4255,67.78225 38.4255,63.32625 41.1755,60.57625 C41.8555,59.89725 42.6425,59.38325 43.4825,59.04025 L43.4825,33.81125 C42.6425,33.46825 41.8575,32.95825 41.1755,32.27525 C39.0935,30.19325 38.5915,27.13525 39.6605,24.57725 L29.2425,14.15825 L1.7325,41.66525 C-0.5775,43.97825 -0.5775,47.72525 1.7325,50.03625 L41.8535,90.15425 C44.1635,92.46425 47.9095,92.46425 50.2225,90.15425 L90.1545,50.22225 C92.4665,47.91125 92.4665,44.16225 90.1545,41.85125" id="Fill-1"></path>
                    </g>
                </g>
            </g>
        </g>
    </g>
</svg>