<?xml version="1.0" encoding="UTF-8" standalone="no"?>
<svg width="245px" height="435px" viewBox="0 0 245 435" version="1.1" xmlns="http://www.w3.org/2000/svg" xmlns:xlink="http://www.w3.org/1999/xlink" xmlns:sketch="http://www.bohemiancoding.com/sketch/ns">
    <!-- Generator: Sketch 3.5.2 (25235) - http://www.bohemiancoding.com/sketch -->
    <title>Github-Large</title>
    <desc>Created with Sketch.</desc>
    <defs></defs>
    <g id="Page-1" stroke="none" stroke-width="1" fill="none" fill-rule="evenodd" sketch:type="MSPage">
        <g id="iPhone-5" sketch:type="MSArtboardGroup" transform="translate(0.000000, -1463.000000)" fill="#000000">
            <g id="Section-5" sketch:type="MSLayerGroup" transform="translate(-245.000000, 1463.000000)">
                <g id="Github-Large" sketch:type="MSShapeGroup">
                    <path d="M334.428878,389.984631 L155.816753,389.984631 C112.659598,389.984631 77.6739481,355.064293 77.6739481,311.987705 C77.6739481,180.351178 169.770825,233.299949 245.122816,233.299949 C320.45248,233.299949 412.571683,178.969518 412.571683,311.987705 C412.571683,355.064293 377.60836,389.984631 334.428878,389.984631 M457.872184,160.762807 L458.586632,161.275359 C458.586632,161.275359 517.684919,59.411373 445.123743,0 C400.470712,0 332.1739,73.6290984 332.1739,73.6290984 L332.68741,73.9633709 C277.094386,57.6285861 214.691775,57.5171619 158.964792,73.6068135 C158.585241,73.2056865 90.5786741,0 46.0372753,0 C-24.8270854,57.9851434 29.7389189,156.26127 32.3287947,160.829662 C9.60040174,194.836322 -2.79081446,237.333504 1.16097882,288.811475 C6.54166909,358.473873 64.7468955,434.554303 134.740522,434.554303 L355.482783,434.554303 C425.498736,434.554303 483.681636,358.473873 489.062326,288.811475 C493.036446,237.288934 480.64523,194.769467 457.872184,160.762807" id="Fill-315"></path>
                    <path d="M346.04983,311.987705 C346.04983,330.461834 336.069877,345.414959 323.723314,345.414959 C311.399077,345.414959 301.396798,330.461834 301.396798,311.987705 C301.396798,293.513576 311.399077,278.560451 323.723314,278.560451 C336.069877,278.560451 346.04983,293.513576 346.04983,311.987705" id="Fill-316"></path>
                </g>
            </g>
        </g>
    </g>
</svg>