<?xml version="1.0" encoding="UTF-8" standalone="no"?>
<svg width="82px" height="112px" viewBox="0 0 82 112" version="1.1" xmlns="http://www.w3.org/2000/svg" xmlns:xlink="http://www.w3.org/1999/xlink" xmlns:sketch="http://www.bohemiancoding.com/sketch/ns">
    <!-- Generator: Sketch 3.5.2 (25235) - http://www.bohemiancoding.com/sketch -->
    <title>javascript</title>
    <desc>Created with Sketch.</desc>
    <defs></defs>
    <g id="Page-1" stroke="none" stroke-width="1" fill="none" fill-rule="evenodd" sketch:type="MSPage">
        <g id="Landing-Page" sketch:type="MSArtboardGroup" transform="translate(-876.000000, -1290.000000)">
            <g id="Section-2" sketch:type="MSLayerGroup" transform="translate(165.000000, 1217.000000)">
                <g id="tools" transform="translate(0.000000, 73.000000)" sketch:type="MSShapeGroup">
                    <g id="javascript" transform="translate(711.000000, 0.000000)">
                        <path d="M41,22 L0,22 L7.64017284,102.795554 L40.7722222,111.991448 L73.8921235,102.795554 L81.5,22 L41,22 Z" id="Fill-1" fill="#67747C"></path>
                        <path d="M40.7726272,28.245777 L40.7726272,105.118414 L67.6018123,97.6719009 L74.1354914,28.245777 L40.7726272,28.245777 Z" id="Fill-2" fill="#8D979D"></path>
                        <path d="M62.1178346,38.2046584 L20.8515877,38.2046584 L17.9836123,68.593331 L18.0443531,68.4030301 L53.0978346,68.4030301 L51.953884,81.256269 L40.7725259,84.4130832 L29.4200815,81.209685 L28.7387728,73.4301451 L18.4330938,73.4301451 L19.9060568,88.9763398 L40.7725259,94.7775434 L61.6389951,88.9763398 L64.5110198,58.4677381 L27.3154148,58.4677381 L27.7891926,48.2945699 L53.6070444,48.2945699 L53.9866741,54.1175788 L64.3844765,54.1175788 L62.1178346,38.2046584 Z" id="Fill-3" fill="#FEFEFE"></path>
                        <path d="M28.7391778,73.4302442 L18.4334988,73.4302442 L19.9054494,88.9754478 L40.7729309,94.7647575 L40.7729309,84.4131823 L29.4204864,81.2097841 L28.7391778,73.4302442 Z M40.7729309,38.2047575 L20.8509802,38.2047575 L17.9830049,68.5934301 L18.044758,68.4031292 L40.7729309,68.4031292 L40.7729309,58.4678372 L28.7503136,58.4678372 L29.2240914,48.294669 L40.7729309,48.294669 L40.7729309,38.2047575 Z" id="Fill-4" fill="#EEF0F1"></path>
                        <path d="M32.9999998,5.69252734e-09 L32.9999998,10 L25.5859235,10 L25.5859235,14.7607788 L32.8373556,14.7607788 L36.7197012,14.7607788 L38.0337259,14.7607788 L38.033726,5.69252734e-09 L32.9999998,5.69252734e-09 Z" id="Fill-5" fill="#67747C"></path>
                        <path d="M55.9597359,-9.7852535e-09 L43,-9.7852535e-09 L43,4.99190106 C44.6906173,6.64811345 46.0521481,7.60339789 48.5,9.99999966 L43,9.99999966 L43,14.4999997 L55.9597359,14.4999997 L55.9597359,9.99999966 L51,4.99190106 L55.9597359,4.99190106 L55.9597359,-9.7852535e-09 Z" id="Fill-6" fill="#67747C"></path>
                    </g>
                </g>
            </g>
        </g>
    </g>
</svg>