<?xml version="1.0" standalone="no"?>
<!DOCTYPE svg PUBLIC "-//W3C//DTD SVG 20010904//EN"
 "http://www.w3.org/TR/2001/REC-SVG-20010904/DTD/svg10.dtd">
<svg version="1.0" xmlns="http://www.w3.org/2000/svg"
 width="300.000000pt" height="282.000000pt" viewBox="0 0 300.000000 282.000000"
 preserveAspectRatio="xMidYMid meet">
<metadata>
Created by potrace 1.13, written by Peter Selinger 2001-2015
</metadata>
<g transform="translate(0.000000,282.000000) scale(0.100000,-0.100000)"
fill="#924393" stroke="none">
<path d="M2836 2684 c-16 -9 -99 -45 -185 -80 -86 -36 -214 -89 -286 -119 -71
-30 -222 -92 -335 -138 -174 -72 -646 -267 -990 -409 -52 -21 -153 -63 -225
-92 -185 -76 -539 -222 -613 -253 -74 -31 -102 -53 -102 -80 0 -36 14 -43 235
-128 114 -44 172 -66 515 -200 290 -113 302 -118 312 -145 5 -14 8 -210 7
-467 -2 -470 -1 -473 45 -473 32 0 52 26 156 205 259 443 275 470 296 473 12
2 82 -30 160 -74 77 -42 157 -86 179 -98 22 -12 119 -66 216 -119 96 -53 180
-97 185 -97 35 0 52 40 84 200 5 25 16 77 25 115 9 39 22 99 29 135 7 36 25
117 39 180 14 63 40 180 57 260 42 200 59 278 71 325 5 22 14 63 19 90 5 28
16 82 25 120 8 39 29 131 44 205 94 439 121 559 131 584 14 38 13 44 -15 71
-28 29 -39 30 -79 9z m-276 -256 c0 -9 -23 -32 -164 -157 -34 -30 -97 -88
-141 -130 -77 -75 -271 -254 -610 -566 -89 -82 -223 -207 -298 -277 -74 -71
-143 -128 -153 -128 -10 0 -104 34 -209 75 -198 77 -433 169 -545 211 -106 41
-110 43 -110 58 0 16 17 31 45 39 11 3 92 35 180 72 88 37 207 86 265 109 258
106 854 352 885 366 11 5 61 25 110 45 50 20 99 40 110 45 42 19 93 40 180 75
122 49 120 48 290 120 144 61 165 66 165 43z m220 7 c0 -13 -38 -194 -101
-480 -11 -49 -24 -110 -29 -135 -10 -50 -29 -136 -60 -280 -12 -52 -31 -144
-44 -205 -13 -60 -36 -164 -50 -230 -15 -66 -33 -151 -42 -190 -8 -38 -21 -97
-28 -130 -8 -33 -22 -100 -32 -149 -12 -53 -25 -91 -33 -94 -8 -3 -28 3 -45
12 -17 10 -125 70 -241 133 -115 64 -230 127 -255 140 -66 37 -156 86 -325
179 -82 45 -154 89 -159 97 -9 14 29 54 185 198 125 115 269 247 399 369 85
80 182 169 215 199 33 30 98 91 145 136 47 44 139 130 205 190 66 60 154 142
196 182 77 73 99 86 99 58z m-1350 -1512 c74 -43 120 -74 120 -84 0 -9 -38
-81 -84 -160 -46 -79 -101 -175 -123 -214 -65 -117 -68 -111 -71 215 -1 157 0
290 3 297 8 23 32 14 155 -54z"/>
</g>
</svg>
