<?xml version="1.0" encoding="UTF-8" standalone="no"?>
<svg width="100px" height="112px" viewBox="0 0 100 112" version="1.1" xmlns="http://www.w3.org/2000/svg" xmlns:xlink="http://www.w3.org/1999/xlink" xmlns:sketch="http://www.bohemiancoding.com/sketch/ns">
    <!-- Generator: Sketch 3.5.2 (25235) - http://www.bohemiancoding.com/sketch -->
    <title>nodejs</title>
    <desc>Created with Sketch.</desc>
    <defs></defs>
    <g id="Page-1" stroke="none" stroke-width="1" fill="none" fill-rule="evenodd" sketch:type="MSPage">
        <g id="Landing-Page" sketch:type="MSArtboardGroup" transform="translate(-165.000000, -1290.000000)" fill="#67747C">
            <g id="Section-2" sketch:type="MSLayerGroup" transform="translate(165.000000, 1217.000000)">
                <g id="tools" transform="translate(0.000000, 73.000000)" sketch:type="MSShapeGroup">
                    <g id="nodejs">
                        <path d="M83.2480916,65.0950811 C83.2480916,56.2584324 77.2236641,53.9041622 64.540458,52.2423243 C51.7251908,50.5615676 50.4221374,49.6943243 50.4221374,46.7187568 C50.4221374,44.2623243 51.5259542,40.9840541 61.0183206,40.9840541 C69.4969466,40.9840541 72.621374,42.794973 73.9061069,48.4615676 C74.019084,48.9950811 74.5091603,49.3848108 75.0648855,49.3848108 L80.4206107,49.3848108 C80.7534351,49.3848108 81.0687023,49.2432973 81.2946565,49.0079459 C81.5206107,48.7567027 81.640458,48.4343243 81.6091603,48.0983243 C80.7801527,38.3376757 74.2389313,33.7895676 61.0183206,33.7895676 C49.2503817,33.7895676 42.2328244,38.7115135 42.2328244,46.966973 C42.2328244,55.9224324 49.2160305,58.3955135 60.5083969,59.5026486 C74.019084,60.8133514 75.0679389,62.7710811 75.0679389,65.4076216 C75.0679389,69.9807027 71.3671756,71.9308649 62.6732824,71.9308649 C51.7519084,71.9308649 49.3496183,69.2118378 48.5442748,63.8267568 C48.4526718,63.2493514 47.9557252,62.8255676 47.3587786,62.8255676 L42.0229008,62.8255676 C41.3618321,62.8255676 40.8312977,63.3484865 40.8312977,64.0038378 C40.8312977,70.8963784 44.6145038,79.1147568 62.6732824,79.1147568 C75.7496183,79.1147568 83.2480916,74.0089189 83.2480916,65.0950811 M49.9251908,111.642432 C48.4175573,111.642432 46.9167939,111.251946 45.5977099,110.495189 L31.8183206,102.41227 C29.7618321,101.270324 30.7664122,100.866973 31.4442748,100.633135 C34.1900763,99.6887027 34.7450382,99.4707568 37.6748092,97.8225405 C37.9801527,97.653027 38.3839695,97.7181081 38.6992366,97.9004865 L49.2847328,104.132378 C49.6687023,104.342757 50.2099237,104.342757 50.5625954,104.132378 L91.8320611,80.5185405 C92.2160305,80.3005946 92.4625954,79.8616757 92.4625954,79.4106486 L92.4625954,32.1958378 C92.4625954,31.7334595 92.2160305,31.3028649 91.8221374,31.0675135 L50.5694656,7.47410811 C50.189313,7.25389189 49.6824427,7.25389189 49.2984733,7.47410811 L8.05648855,31.0750811 C7.65572519,31.3028649 7.40229008,31.7470811 7.40229008,32.1958378 L7.40229008,79.4106486 C7.40229008,79.8616757 7.65572519,80.29 8.05343511,80.5041622 L19.3587786,86.9797297 C25.4923664,90.0196216 29.2480916,86.4394054 29.2480916,82.841027 L29.2480916,36.2248108 C29.2480916,35.5656757 29.7824427,35.0457838 30.4473282,35.0457838 L35.6801527,35.0457838 C36.3343511,35.0457838 36.8763359,35.5656757 36.8763359,36.2248108 L36.8763359,82.841027 C36.8763359,90.958 32.4175573,95.6120541 24.6564885,95.6120541 C22.2709924,95.6120541 20.3931298,95.6120541 15.1503817,93.0511892 L4.32824427,86.8737838 C1.65496183,85.3421081 0,82.477027 0,79.4106486 L0,32.1958378 C0,29.1279459 1.65496183,26.2643784 4.32824427,24.7387568 L45.5977099,1.09767568 C48.2091603,-0.365891892 51.6801527,-0.365891892 54.2717557,1.09767568 L95.5358779,24.7387568 C98.210687,26.2711892 99.8709924,29.1279459 99.8709924,32.1958378 L99.8709924,79.4106486 C99.8709924,82.477027 98.210687,85.3315135 95.5358779,86.8737838 L54.2717557,110.495189 C52.9519084,111.251946 51.4549618,111.642432 49.9251908,111.642432"></path>
                    </g>
                </g>
            </g>
        </g>
    </g>
</svg>