<?xml version="1.0" encoding="UTF-8" standalone="no"?>
<svg width="106px" height="95px" viewBox="0 0 106 95" version="1.1" xmlns="http://www.w3.org/2000/svg" xmlns:xlink="http://www.w3.org/1999/xlink" xmlns:sketch="http://www.bohemiancoding.com/sketch/ns">
    <!-- Generator: Sketch 3.5.2 (25235) - http://www.bohemiancoding.com/sketch -->
    <title>react</title>
    <desc>Created with Sketch.</desc>
    <defs></defs>
    <g id="Page-1" stroke="none" stroke-width="1" fill="none" fill-rule="evenodd" sketch:type="MSPage">
        <g id="Landing-Page" sketch:type="MSArtboardGroup" transform="translate(-396.000000, -1299.000000)">
            <g id="Section-2" sketch:type="MSLayerGroup" transform="translate(165.000000, 1217.000000)">
                <g id="tools" transform="translate(0.000000, 73.000000)" sketch:type="MSShapeGroup">
                    <g id="react" transform="translate(234.000000, 12.000000)">
                        <ellipse id="Oval" fill="#67747C" cx="50.0053803" cy="44.0868275" rx="9.30742115" ry="9.30742115"></ellipse>
                        <path d="M50.0053803,25.1628942 C62.5018553,25.1628942 74.1107607,26.9560297 82.8638219,29.9693878 C93.4100186,33.6 99.8942486,39.103525 99.8942486,44.0868275 C99.8942486,49.2799629 93.0220779,55.1263451 81.6970315,58.8786642 C73.1346939,61.7155844 61.8679035,63.1962894 50.0053803,63.1962894 C37.8432282,63.1962894 26.3263451,61.806308 17.6695733,58.8473098 C6.7148423,55.1029685 0.116512059,49.180705 0.116512059,44.0868275 C0.116512059,39.1439703 6.30760668,33.6831169 16.7055659,30.057885 C25.4912801,26.9949907 37.3868275,25.1628942 50.0053803,25.1628942 L50.0053803,25.1628942 Z" id="Shape" stroke="#67747C" stroke-width="6"></path>
                        <path d="M33.5317254,34.6794063 C39.7745826,23.8541744 47.1274583,14.6935065 54.1105751,8.61632653 C62.5243043,1.29424861 70.5311688,-1.57346939 74.8480519,0.915955473 C79.3467532,3.51020408 80.9782931,12.3842301 78.5710575,24.0692022 C76.7510204,32.9037106 72.4051948,43.403525 66.4790353,53.6797774 C60.403154,64.2155844 53.4456401,73.4977737 46.5575139,79.5187384 C37.8411874,87.1380334 29.4146568,89.8951763 25.0018553,87.3504638 C20.7200371,84.8810761 19.0823748,76.7899814 21.1365492,65.9714286 C22.8721707,56.8304267 27.2278293,45.6105751 33.5317254,34.6794063 L33.5317254,34.6794063 Z" id="Shape" stroke="#67747C" stroke-width="6"></path>
                        <path d="M33.5474954,53.7072356 C27.2866419,42.8923933 23.0222635,31.9471243 21.2447124,22.8621521 C19.1029685,11.916141 20.6172542,3.54693878 24.9300557,1.05027829 C29.4243043,-1.55157699 37.9272727,1.46660482 46.848423,9.38794063 C53.5935065,15.3768089 60.519666,24.3855288 66.4630798,34.6519481 C72.5565863,45.177551 77.1237477,55.8410019 78.9001855,64.8155844 C81.1482375,76.1723562 79.3285714,84.8497217 74.9200371,87.4018553 C70.6423006,89.8782931 62.8144712,87.2564007 54.4675325,80.0736549 C47.4150278,74.0048237 39.8697588,64.6278293 33.5474954,53.7072356 L33.5474954,53.7072356 Z" id="Shape" stroke="#67747C" stroke-width="6"></path>
                    </g>
                </g>
            </g>
        </g>
    </g>
</svg>