<svg width="100" height="107" viewBox="0 0 100 107" xmlns="http://www.w3.org/2000/svg"><title>angular</title><g fill="none" fill-rule="evenodd"><path d="M49 .5L0 18l7.238 65.612L49 107l42.775-23.702L100 18 49 .5zM94.5 22L49 6v95l38.324-20.835L94.5 22zm-89 0l6.22 58.445L49 101V6L5.5 22z" fill="#67747C"/><path d="M61.74 56.747l-12.512 5.85h-13.19l-6.2 15.498-11.53.214 30.92-68.756L61.74 56.747zm-1.21-2.945L49.31 31.6l-9.203 21.82h9.12l11.304.382z" fill="#8D979D"/><path d="M49.227 9.554L49.31 31.6l10.444 21.837H49.25l-.023 9.145 14.523.014 6.788 15.715 11.033.206L49.228 9.554z" fill="#67747C"/></g></svg>