<svg width="300" height="226" viewBox="0 0 300 226" xmlns="http://www.w3.org/2000/svg"><title>diamonds-1</title><g fill="#C1C1FF" fill-rule="evenodd"><path d="M103.125 47.083l-9.375-9.416-75 75.333 75 75.333 9.375-9.416L37.5 113l65.625-65.917zM196.875 178.917l9.375 9.416 75-75.333-75-75.333-9.375 9.416L262.5 113l-65.625 65.917z" opacity=".2"/><path d="M234.375 160.083l9.375 9.417L300 113l-56.25-56.5-9.375 9.417L281.25 113l-46.875 47.083zM65.625 65.917L56.25 56.5 0 113l56.25 56.5 9.375-9.417L18.75 113l46.875-47.083z" opacity=".1"/><path opacity=".4" d="M150 0l112.5 113L150 226 37.5 113z"/></g></svg>