<svg width="197" height="109" viewBox="0 0 197 109" xmlns="http://www.w3.org/2000/svg"><title>docker</title><g fill="#67747C" fill-rule="evenodd"><path d="M132 33.976V51h8c4.117 0 8.635-.875 12.534-2.185 1.916-.645 4.067-1.541 5.956-2.669-2.489-3.223-3.76-7.293-4.134-11.304-.508-5.456.602-12.558 4.326-16.829l1.853-2.126 2.209 1.76c5.56 4.432 10.238 10.623 11.062 17.681 6.696-1.953 14.557-1.491 20.46 1.887l2.42 1.386-1.274 2.467c-4.991 9.662-15.426 12.654-25.629 12.125-15.266 37.71-48.503 55.563-88.802 55.563-20.82 0-39.922-7.719-50.8-26.038l-1.763-3.497c-3.677-8.064-4.898-16.898-4.07-25.725L24.5 51H39V33.976h18V17h36V0h21v33.976h18zm38.863 5.613c1.182-9.113-5.694-16.27-9.959-19.67-4.914 5.636-5.678 20.404 2.032 26.621-4.303 3.79-13.37 7.226-22.653 7.226H27.276c-.903 9.611.798 18.462 4.684 26.038l1.286 2.332A43.213 43.213 0 0 0 35.91 86.1c4.646.296 8.93.398 12.849.312h.001c7.702-.17 13.986-1.07 18.748-2.707a1.36 1.36 0 0 1 1.727.83c.245.703-.13 1.47-.838 1.714-.633.217-1.294.421-1.975.614h-.003c-3.75 1.062-7.77 1.778-12.96 2.095.308.005-.32.046-.322.046-.176.01-.398.036-.576.045-2.041.114-4.246.138-6.499.138-2.464 0-4.891-.046-7.605-.183l-.07.045c9.417 10.496 24.14 16.791 42.594 16.791 39.057 0 72.185-17.17 86.855-55.72 10.408 1.06 20.41-1.573 24.96-10.382-7.247-4.148-16.567-2.825-21.933-.15zM114 37h15v14.047h-15V37zm-18 0h15v14.047H96V37zm0-17h15v14H96V20zm0-17h15v14H96V3zM42 37h15v14.047H42V37zm18-17h15v14H60V20zm0 17h15v14.047H60V37zm18 0h15v14.047H78V37zm0-17h15v14H78V20z"/><path d="M49 38h1v12h-1V38zM52 38h1v12h-1V38zM55 38h1v12h-1V38zM46 38h1v12h-1V38zM43 38h1v12h-1V38zM67 38h1v12h-1V38zM70 38h1v12h-1V38zM73 38h1v12h-1V38zM64 38h1v12h-1V38zM61 38h1v12h-1V38zM85 38h1v12h-1V38zM88 38h1v12h-1V38zM91 38h1v12h-1V38zM82 38h1v12h-1V38zM79 38h1v12h-1V38zM85 21h1v12h-1V21zM88 21h1v12h-1V21zM91 21h1v12h-1V21zM82 21h1v12h-1V21zM79 21h1v12h-1V21zM103 38h1v12h-1V38zM106 38h1v12h-1V38zM109 38h1v12h-1V38zM100 38h1v12h-1V38zM97 38h1v12h-1V38zM103 21h1v12h-1V21zM106 21h1v12h-1V21zM109 21h1v12h-1V21zM100 21h1v12h-1V21zM97 21h1v12h-1V21zM103 4h1v12h-1V4zM106 4h1v12h-1V4zM109 4h1v12h-1V4zM100 4h1v12h-1V4zM97 4h1v12h-1V4zM121 38h1v12h-1V38zM124 38h1v12h-1V38zM127 38h1v12h-1V38zM118 38h1v12h-1V38zM115 38h1v12h-1V38zM74.573 76.806c.385 0 .753.072 1.093.203a1.22 1.22 0 0 0-.617 1.058c0 .675.552 1.221 1.232 1.221.466 0 .872-.256 1.08-.636.149.354.231.742.231 1.15 0 1.653-1.352 2.993-3.02 2.993-1.667 0-3.02-1.34-3.02-2.994 0-1.654 1.353-2.995 3.02-2.995M0 66.955h196.123c-4.27-1.074-13.511-2.525-11.987-8.076-7.765 8.911-26.491 6.252-31.217 1.858-5.263 7.57-35.9 4.692-38.037-1.205-6.598 7.68-27.042 7.68-33.64 0-2.138 5.897-32.775 8.775-38.038 1.205-4.726 4.394-23.45 7.053-31.216-1.858C13.512 64.43 4.271 65.881 0 66.955M67 21h1v12h-1V21zM70 21h1v12h-1V21zM73 21h1v12h-1V21zM64 21h1v12h-1V21zM61 21h1v12h-1V21z"/></g></svg>