<svg width="92" height="92" viewBox="0 0 92 92" xmlns="http://www.w3.org/2000/svg"><title>git</title><path d="M90.154 41.851L50.036 1.733a5.918 5.918 0 0 0-8.37 0l-8.33 8.332 10.568 10.568a7.026 7.026 0 0 1 8.898 8.96L62.99 39.776a7.028 7.028 0 0 1 7.274 1.671 7.04 7.04 0 0 1 0 9.957 7.041 7.041 0 0 1-11.492-7.658l-9.5-9.499v24.997c.67.332 1.303.774 1.862 1.331a7.043 7.043 0 1 1-7.651-1.536V33.811a7.04 7.04 0 0 1-3.822-9.234L29.242 14.158 1.732 41.665a5.922 5.922 0 0 0 0 8.371l40.121 40.118a5.92 5.92 0 0 0 8.37 0l39.931-39.932a5.918 5.918 0 0 0 0-8.37" fill="#67747C" fill-rule="evenodd"/></svg>