<svg width="245" height="435" viewBox="0 0 245 435" xmlns="http://www.w3.org/2000/svg"><title>Github-Large</title><g fill="#000" fill-rule="evenodd"><path d="M89.429 389.985H-89.183c-43.157 0-78.143-34.92-78.143-77.997C-167.326 180.35-75.23 233.3.123 233.3c75.33 0 167.449-54.33 167.449 78.688 0 43.076-34.964 77.997-78.143 77.997m123.443-229.222l.715.512S272.685 59.411 200.124 0C155.47 0 87.174 73.63 87.174 73.63l.513.333C32.094 57.63-30.308 57.517-86.035 73.607-86.415 73.206-154.421 0-198.963 0c-70.864 57.985-16.298 156.261-13.708 160.83-22.729 34.006-35.12 76.504-31.168 127.981 5.38 69.663 63.586 145.743 133.58 145.743h220.742c70.016 0 128.199-76.08 133.58-145.743 3.973-51.522-8.418-94.042-31.19-128.048"/><path d="M101.05 311.988c0 18.474-9.98 33.427-22.327 33.427-12.324 0-22.326-14.953-22.326-33.427s10.002-33.428 22.326-33.428c12.347 0 22.327 14.954 22.327 33.428"/></g></svg>