<svg width="245" height="435" viewBox="0 0 245 435" xmlns="http://www.w3.org/2000/svg"><title>Github-Large</title><g fill="#000" fill-rule="evenodd"><path d="M89.43 389.985H-89.184c-43.157 0-78.143-34.92-78.143-77.997 0-131.637 92.097-78.688 167.45-78.688 75.328 0 167.448-54.33 167.448 78.688 0 43.076-34.964 77.997-78.143 77.997M212.87 160.763l.715.512S272.685 59.41 200.124 0C155.47 0 87.174 73.63 87.174 73.63l.513.333C32.094 57.63-30.308 57.517-86.035 73.607-86.415 73.207-154.42 0-198.963 0c-70.864 57.985-16.298 156.26-13.708 160.83-22.73 34.006-35.12 76.504-31.17 127.98 5.382 69.664 63.587 145.744 133.58 145.744h220.743c70.016 0 128.2-76.08 133.58-145.743 3.973-51.52-8.418-94.04-31.19-128.047"/><path d="M101.05 311.988c0 18.474-9.98 33.427-22.327 33.427-12.324 0-22.326-14.953-22.326-33.427S66.4 278.56 78.723 278.56c12.347 0 22.327 14.954 22.327 33.428"/></g></svg>