<svg width="82" height="112" viewBox="0 0 82 112" xmlns="http://www.w3.org/2000/svg"><title>javascript</title><g fill="none" fill-rule="evenodd"><path d="M41 22H0l7.64 80.796 33.132 9.195 33.12-9.194L81.5 22H41z" fill="#67747C"/><path d="M40.773 28.246v76.872l26.83-7.446 6.532-69.426H40.773z" fill="#8D979D"/><path d="M62.118 38.205H20.852l-2.868 30.388.06-.19h35.054l-1.144 12.853-11.18 3.157L29.42 81.21l-.68-7.78H18.432l1.473 15.546 20.867 5.802 20.866-5.802 2.87-30.508H27.316l.474-10.173h25.817l.38 5.823h10.397l-2.266-15.913z" fill="#FEFEFE"/><path d="M28.74 73.43H18.432l1.472 15.545 20.868 5.79V84.413L29.42 81.21l-.68-7.78zm12.033-35.225H20.85l-2.867 30.388.062-.19h22.728v-9.935H28.75l.474-10.173h11.55v-10.09z" fill="#EEF0F1"/><path d="M33 0v10h-7.414v4.76h12.448V0H33zM55.96 0H43v4.992c1.69 1.656 3.052 2.61 5.5 5.008H43v4.5h12.96V10L51 4.992h4.96V0z" fill="#67747C"/></g></svg>