<svg version="1" xmlns="http://www.w3.org/2000/svg" width="400" height="376" viewBox="0 0 300.000000 282.000000"><path d="M283.6 13.6c-1.6.9-9.9 4.5-18.5 8-8.6 3.6-21.4 8.9-28.6 11.9-7.1 3-22.2 9.2-33.5 13.8-17.4 7.2-64.6 26.7-99 40.9-5.2 2.1-15.3 6.3-22.5 9.2-18.5 7.6-53.9 22.2-61.3 25.3-7.4 3.1-10.2 5.3-10.2 8 0 3.6 1.4 4.3 23.5 12.8 11.4 4.4 17.2 6.6 51.5 20 29 11.3 30.2 11.8 31.2 14.5.5 1.4.8 21 .7 46.7-.2 47-.1 47.3 4.5 47.3 3.2 0 5.2-2.6 15.6-20.5 25.9-44.3 27.5-47 29.6-47.3 1.2-.2 8.2 3 16 7.4 7.7 4.2 15.7 8.6 17.9 9.8 2.2 1.2 11.9 6.6 21.6 11.9 9.6 5.3 18 9.7 18.5 9.7 3.5 0 5.2-4 8.4-20 .5-2.5 1.6-7.7 2.5-11.5.9-3.9 2.2-9.9 2.9-13.5.7-3.6 2.5-11.7 3.9-18 1.4-6.3 4-18 5.7-26 4.2-20 5.9-27.8 7.1-32.5.5-2.2 1.4-6.3 1.9-9 .5-2.8 1.6-8.2 2.5-12 .8-3.9 2.9-13.1 4.4-20.5 9.4-43.9 12.1-55.9 13.1-58.4 1.4-3.8 1.3-4.4-1.5-7.1-2.8-2.9-3.9-3-7.9-.9zM256 39.2c0 .9-2.3 3.2-16.4 15.7-3.4 3-9.7 8.8-14.1 13-7.7 7.5-27.1 25.4-61 56.6-8.9 8.2-22.3 20.7-29.8 27.7-7.4 7.1-14.3 12.8-15.3 12.8s-10.4-3.4-20.9-7.5c-19.8-7.7-43.3-16.9-54.5-21.1-10.6-4.1-11-4.3-11-5.8 0-1.6 1.7-3.1 4.5-3.9 1.1-.3 9.2-3.5 18-7.2s20.7-8.6 26.5-10.9C107.8 98 167.4 73.4 170.5 72c1.1-.5 6.1-2.5 11-4.5 5-2 9.9-4 11-4.5 4.2-1.9 9.3-4 18-7.5 12.2-4.9 12-4.8 29-12 14.4-6.1 16.5-6.6 16.5-4.3zm22-.7c0 1.3-3.8 19.4-10.1 48-1.1 4.9-2.4 11-2.9 13.5-1 5-2.9 13.6-6 28-1.2 5.2-3.1 14.4-4.4 20.5-1.3 6-3.6 16.4-5 23-1.5 6.6-3.3 15.1-4.2 19-.8 3.8-2.1 9.7-2.8 13-.8 3.3-2.2 10-3.2 14.9-1.2 5.3-2.5 9.1-3.3 9.4-.8.3-2.8-.3-4.5-1.2-1.7-1-12.5-7-24.1-13.3-11.5-6.4-23-12.7-25.5-14-6.6-3.7-15.6-8.6-32.5-17.9-8.2-4.5-15.4-8.9-15.9-9.7-.9-1.4 2.9-5.4 18.5-19.8 12.5-11.5 26.9-24.7 39.9-36.9 8.5-8 18.2-16.9 21.5-19.9 3.3-3 9.8-9.1 14.5-13.6 4.7-4.4 13.9-13 20.5-19s15.4-14.2 19.6-18.2c7.7-7.3 9.9-8.6 9.9-5.8zM143 189.7c7.4 4.3 12 7.4 12 8.4 0 .9-3.8 8.1-8.4 16-4.6 7.9-10.1 17.5-12.3 21.4-6.5 11.7-6.8 11.1-7.1-21.5-.1-15.7 0-29 .3-29.7.8-2.3 3.2-1.4 15.5 5.4z" fill="#924393"/></svg>