<svg width="100" height="112" viewBox="0 0 100 112" xmlns="http://www.w3.org/2000/svg"><title>nodejs</title><path d="M83.248 65.095c0-8.837-6.024-11.19-18.708-12.853-12.815-1.68-14.118-2.548-14.118-5.523 0-2.458 1.104-5.736 10.596-5.736 8.48 0 11.603 1.81 12.888 7.478.113.533.603.923 1.16.923h5.355c.333 0 .65-.142.875-.377a1.19 1.19 0 0 0 .314-.91c-.83-9.76-7.37-14.308-20.592-14.308-11.768 0-18.785 4.922-18.785 13.177 0 8.955 6.983 11.43 18.275 12.536 13.51 1.31 14.56 3.268 14.56 5.905 0 4.573-3.7 6.523-12.395 6.523-10.92 0-13.323-2.718-14.13-8.103a1.19 1.19 0 0 0-1.184-1h-5.337a1.18 1.18 0 0 0-1.192 1.177c0 6.892 3.785 15.11 21.843 15.11 13.077 0 20.575-5.105 20.575-14.02m-33.323 46.548a8.714 8.714 0 0 1-4.327-1.147l-13.78-8.083c-2.056-1.142-1.052-1.545-.374-1.78 2.746-.943 3.3-1.16 6.23-2.81.306-.17.71-.104 1.025.078l10.585 6.232c.384.21.925.21 1.278 0l41.27-23.613a1.29 1.29 0 0 0 .63-1.11V32.197a1.32 1.32 0 0 0-.64-1.128L50.568 7.474c-.38-.22-.888-.22-1.272 0l-41.242 23.6c-.4.23-.654.673-.654 1.122V79.41c0 .452.254.88.65 1.094L19.36 86.98c6.132 3.04 9.888-.54 9.888-4.14V36.226c0-.66.534-1.18 1.2-1.18h5.232c.654 0 1.196.52 1.196 1.18V82.84c0 8.118-4.458 12.772-12.22 12.772-2.385 0-4.263 0-9.506-2.56L4.328 86.873A8.627 8.627 0 0 1 0 79.41V32.197a8.608 8.608 0 0 1 4.328-7.457l41.27-23.642c2.61-1.464 6.082-1.464 8.674 0l41.264 23.64a8.62 8.62 0 0 1 4.335 7.458V79.41c0 3.067-1.66 5.922-4.334 7.464l-41.264 23.62a8.725 8.725 0 0 1-4.347 1.148" fill="#67747C" fill-rule="evenodd"/></svg>