<svg width="100" height="112" viewBox="0 0 100 112" xmlns="http://www.w3.org/2000/svg"><title>nodejs</title><path d="M83.248 65.095c0-8.837-6.024-11.19-18.708-12.853-12.815-1.68-14.118-2.548-14.118-5.523 0-2.457 1.104-5.735 10.596-5.735 8.479 0 11.603 1.811 12.888 7.478.113.533.603.923 1.159.923h5.356c.332 0 .648-.142.874-.377a1.19 1.19 0 0 0 .314-.91c-.829-9.76-7.37-14.308-20.59-14.308-11.769 0-18.786 4.922-18.786 13.177 0 8.955 6.983 11.429 18.275 12.536 13.511 1.31 14.56 3.268 14.56 5.905 0 4.573-3.7 6.523-12.395 6.523-10.921 0-13.323-2.72-14.129-8.104a1.19 1.19 0 0 0-1.185-1.001h-5.336a1.18 1.18 0 0 0-1.192 1.178c0 6.892 3.784 15.11 21.842 15.11 13.077 0 20.575-5.105 20.575-14.019m-33.323 46.547a8.714 8.714 0 0 1-4.327-1.147l-13.78-8.083c-2.056-1.142-1.052-1.545-.374-1.779 2.746-.944 3.301-1.162 6.23-2.81.306-.17.71-.105 1.025.077l10.586 6.232c.384.21.925.21 1.278 0l41.27-23.613a1.29 1.29 0 0 0 .63-1.108V32.196a1.32 1.32 0 0 0-.64-1.128L50.568 7.474c-.38-.22-.887-.22-1.27 0L8.055 31.075c-.4.228-.654.672-.654 1.12v47.216c0 .45.254.879.651 1.093L19.36 86.98c6.133 3.04 9.89-.54 9.89-4.139V36.225c0-.66.533-1.18 1.198-1.18h5.233c.654 0 1.196.52 1.196 1.18V82.84c0 8.117-4.458 12.771-12.22 12.771-2.385 0-4.263 0-9.506-2.56L4.328 86.873A8.627 8.627 0 0 1 0 79.41V32.196a8.608 8.608 0 0 1 4.328-7.457l41.27-23.641c2.611-1.464 6.082-1.464 8.674 0l41.264 23.64a8.62 8.62 0 0 1 4.335 7.458V79.41c0 3.066-1.66 5.92-4.335 7.463l-41.264 23.621a8.725 8.725 0 0 1-4.347 1.147" fill="#67747C" fill-rule="evenodd"/></svg>