<svg width="106" height="95" viewBox="0 0 106 95" xmlns="http://www.w3.org/2000/svg"><title>react</title><g transform="translate(3 3)" fill="none" fill-rule="evenodd"><ellipse fill="#67747C" cx="50.005" cy="44.087" rx="9.307" ry="9.307"/><path d="M50.005 25.163c12.497 0 24.106 1.793 32.859 4.806 10.546 3.631 17.03 9.135 17.03 14.118 0 5.193-6.872 11.04-18.197 14.792-8.562 2.837-19.83 4.317-31.692 4.317-12.162 0-23.679-1.39-32.335-4.349C6.715 55.103.117 49.181.117 44.087c0-4.943 6.19-10.404 16.589-14.03 8.785-3.062 20.68-4.894 33.3-4.894z" stroke="#67747C" stroke-width="6"/><path d="M33.532 34.68C39.775 23.853 47.127 14.693 54.11 8.615c8.413-7.322 16.42-10.19 20.737-7.7 4.499 2.594 6.13 11.468 3.723 23.153-1.82 8.835-6.166 19.335-12.092 29.61-6.076 10.537-13.033 19.819-19.921 25.84-8.717 7.619-17.143 10.376-21.556 7.831-4.282-2.469-5.92-10.56-3.865-21.379 1.735-9.14 6.09-20.36 12.395-31.292z" stroke="#67747C" stroke-width="6"/><path d="M33.547 53.707c-6.26-10.815-10.525-21.76-12.302-30.845-2.142-10.946-.628-19.315 3.685-21.812 4.494-2.602 12.997.417 21.918 8.338 6.746 5.989 13.672 14.998 19.615 25.264C72.557 45.178 77.123 55.84 78.9 64.816c2.248 11.356.429 20.034-3.98 22.586-4.278 2.476-12.106-.146-20.452-7.328-7.053-6.07-14.598-15.446-20.92-26.367z" stroke="#67747C" stroke-width="6"/></g></svg>