<svg width="106" height="95" viewBox="0 0 106 95" xmlns="http://www.w3.org/2000/svg"><title>react</title><g transform="translate(3 3)" fill="none" fill-rule="evenodd"><ellipse fill="#67747C" cx="50.005" cy="44.087" rx="9.307" ry="9.307"/><path d="M50.005 25.163c12.497 0 24.106 1.793 32.86 4.806 10.545 3.63 17.03 9.134 17.03 14.117 0 5.193-6.873 11.04-18.198 14.792-8.562 2.836-19.83 4.316-31.692 4.316-12.162 0-23.68-1.39-32.335-4.35C6.715 55.104.117 49.182.117 44.087c0-4.942 6.19-10.403 16.59-14.028 8.784-3.063 20.68-4.895 33.298-4.895z" stroke="#67747C" stroke-width="6"/><path d="M33.532 34.68c6.243-10.826 13.595-19.986 20.58-26.064 8.412-7.322 16.42-10.19 20.736-7.7 4.5 2.594 6.13 11.468 3.723 23.153-1.82 8.834-6.165 19.334-12.09 29.61-6.077 10.536-13.034 19.818-19.922 25.84-8.717 7.618-17.143 10.375-21.556 7.83-4.282-2.47-5.92-10.56-3.865-21.38 1.735-9.14 6.09-20.36 12.395-31.29z" stroke="#67747C" stroke-width="6"/><path d="M33.547 53.707c-6.26-10.815-10.525-21.76-12.302-30.845-2.142-10.946-.628-19.315 3.685-21.812 4.494-2.602 12.997.417 21.918 8.338 6.746 5.99 13.672 14.998 19.615 25.264 6.094 10.526 10.66 21.19 12.437 30.164 2.248 11.356.43 20.034-3.98 22.586-4.278 2.476-12.106-.146-20.452-7.328-7.053-6.07-14.598-15.446-20.92-26.367z" stroke="#67747C" stroke-width="6"/></g></svg>